<mxfile host="app.diagrams.net" agent="Mozilla/5.0 (Windows NT 10.0; Win64; x64; rv:136.0) Gecko/20100101 Firefox/136.0" version="26.1.0" pages="3">
  <diagram name="menu" id="S8i0GTMw1XWYmv7jG8Vx">
    <mxGraphModel dx="1222" dy="678" grid="1" gridSize="10" guides="1" tooltips="1" connect="1" arrows="1" fold="1" page="1" pageScale="1" pageWidth="2000" pageHeight="2000" math="0" shadow="0">
      <root>
        <mxCell id="0" />
        <mxCell id="1" parent="0" />
        <mxCell id="yuVUtNRUPRUCI5B40eQd-2" value="mulai" style="strokeWidth=2;html=1;shape=mxgraph.flowchart.terminator;whiteSpace=wrap;" vertex="1" parent="1">
          <mxGeometry x="570" y="160" width="100" height="60" as="geometry" />
        </mxCell>
        <mxCell id="yuVUtNRUPRUCI5B40eQd-17" style="edgeStyle=orthogonalEdgeStyle;rounded=0;orthogonalLoop=1;jettySize=auto;html=1;exitX=0.5;exitY=1;exitDx=0;exitDy=0;entryX=0.5;entryY=0;entryDx=0;entryDy=0;" edge="1" parent="1" source="yuVUtNRUPRUCI5B40eQd-4" target="yuVUtNRUPRUCI5B40eQd-5">
          <mxGeometry relative="1" as="geometry" />
        </mxCell>
        <mxCell id="yuVUtNRUPRUCI5B40eQd-4" value="&lt;div&gt;username&lt;/div&gt;" style="shape=parallelogram;perimeter=parallelogramPerimeter;whiteSpace=wrap;html=1;fixedSize=1;" vertex="1" parent="1">
          <mxGeometry x="560" y="280" width="120" height="60" as="geometry" />
        </mxCell>
        <mxCell id="yuVUtNRUPRUCI5B40eQd-18" style="edgeStyle=orthogonalEdgeStyle;rounded=0;orthogonalLoop=1;jettySize=auto;html=1;exitX=0.5;exitY=1;exitDx=0;exitDy=0;entryX=0.5;entryY=0;entryDx=0;entryDy=0;" edge="1" parent="1" source="yuVUtNRUPRUCI5B40eQd-5" target="yuVUtNRUPRUCI5B40eQd-8">
          <mxGeometry relative="1" as="geometry" />
        </mxCell>
        <mxCell id="yuVUtNRUPRUCI5B40eQd-5" value="pasword" style="shape=parallelogram;perimeter=parallelogramPerimeter;whiteSpace=wrap;html=1;fixedSize=1;" vertex="1" parent="1">
          <mxGeometry x="560" y="430" width="120" height="60" as="geometry" />
        </mxCell>
        <mxCell id="yuVUtNRUPRUCI5B40eQd-12" style="edgeStyle=orthogonalEdgeStyle;rounded=0;orthogonalLoop=1;jettySize=auto;html=1;exitX=0.5;exitY=1;exitDx=0;exitDy=0;entryX=0.5;entryY=0;entryDx=0;entryDy=0;" edge="1" parent="1" source="yuVUtNRUPRUCI5B40eQd-8" target="yuVUtNRUPRUCI5B40eQd-9">
          <mxGeometry relative="1" as="geometry" />
        </mxCell>
        <mxCell id="yuVUtNRUPRUCI5B40eQd-21" value="yes" style="edgeLabel;html=1;align=center;verticalAlign=middle;resizable=0;points=[];" vertex="1" connectable="0" parent="yuVUtNRUPRUCI5B40eQd-12">
          <mxGeometry x="-0.1569" relative="1" as="geometry">
            <mxPoint as="offset" />
          </mxGeometry>
        </mxCell>
        <mxCell id="yuVUtNRUPRUCI5B40eQd-13" style="edgeStyle=orthogonalEdgeStyle;rounded=0;orthogonalLoop=1;jettySize=auto;html=1;exitX=1;exitY=0.5;exitDx=0;exitDy=0;entryX=0;entryY=0.5;entryDx=0;entryDy=0;" edge="1" parent="1" source="yuVUtNRUPRUCI5B40eQd-8" target="yuVUtNRUPRUCI5B40eQd-10">
          <mxGeometry relative="1" as="geometry" />
        </mxCell>
        <mxCell id="yuVUtNRUPRUCI5B40eQd-20" value="&lt;div&gt;no&lt;/div&gt;" style="edgeLabel;html=1;align=center;verticalAlign=middle;resizable=0;points=[];" vertex="1" connectable="0" parent="yuVUtNRUPRUCI5B40eQd-13">
          <mxGeometry x="-0.0092" y="-1" relative="1" as="geometry">
            <mxPoint as="offset" />
          </mxGeometry>
        </mxCell>
        <mxCell id="yuVUtNRUPRUCI5B40eQd-8" value="username == &quot;admin&quot; &amp;amp;&amp;amp; password == &quot;admin123&quot;" style="rhombus;whiteSpace=wrap;html=1;" vertex="1" parent="1">
          <mxGeometry x="560" y="590" width="120" height="120" as="geometry" />
        </mxCell>
        <mxCell id="yuVUtNRUPRUCI5B40eQd-9" value="menu admin" style="verticalLabelPosition=bottom;verticalAlign=top;html=1;shape=offPageConnector;rounded=0;size=0.5;" vertex="1" parent="1">
          <mxGeometry x="590" y="790" width="60" height="60" as="geometry" />
        </mxCell>
        <mxCell id="yuVUtNRUPRUCI5B40eQd-15" style="edgeStyle=orthogonalEdgeStyle;rounded=0;orthogonalLoop=1;jettySize=auto;html=1;exitX=1;exitY=0.5;exitDx=0;exitDy=0;entryX=0;entryY=0.5;entryDx=0;entryDy=0;" edge="1" parent="1" source="yuVUtNRUPRUCI5B40eQd-10" target="yuVUtNRUPRUCI5B40eQd-14">
          <mxGeometry relative="1" as="geometry" />
        </mxCell>
        <mxCell id="yuVUtNRUPRUCI5B40eQd-23" value="no" style="edgeLabel;html=1;align=center;verticalAlign=middle;resizable=0;points=[];" vertex="1" connectable="0" parent="yuVUtNRUPRUCI5B40eQd-15">
          <mxGeometry x="-0.2043" y="1" relative="1" as="geometry">
            <mxPoint as="offset" />
          </mxGeometry>
        </mxCell>
        <mxCell id="yuVUtNRUPRUCI5B40eQd-19" style="edgeStyle=orthogonalEdgeStyle;rounded=0;orthogonalLoop=1;jettySize=auto;html=1;exitX=0.5;exitY=1;exitDx=0;exitDy=0;entryX=0.5;entryY=0;entryDx=0;entryDy=0;" edge="1" parent="1" source="yuVUtNRUPRUCI5B40eQd-10" target="yuVUtNRUPRUCI5B40eQd-11">
          <mxGeometry relative="1" as="geometry" />
        </mxCell>
        <mxCell id="yuVUtNRUPRUCI5B40eQd-22" value="yes" style="edgeLabel;html=1;align=center;verticalAlign=middle;resizable=0;points=[];" vertex="1" connectable="0" parent="yuVUtNRUPRUCI5B40eQd-19">
          <mxGeometry x="-0.2603" y="1" relative="1" as="geometry">
            <mxPoint as="offset" />
          </mxGeometry>
        </mxCell>
        <mxCell id="yuVUtNRUPRUCI5B40eQd-10" value="username == &quot;user&quot; &amp;amp;&amp;amp; password == &quot;user123&quot;" style="rhombus;whiteSpace=wrap;html=1;" vertex="1" parent="1">
          <mxGeometry x="770" y="590" width="120" height="120" as="geometry" />
        </mxCell>
        <mxCell id="yuVUtNRUPRUCI5B40eQd-11" value="&lt;div&gt;menu user&lt;/div&gt;" style="verticalLabelPosition=bottom;verticalAlign=top;html=1;shape=offPageConnector;rounded=0;size=0.5;" vertex="1" parent="1">
          <mxGeometry x="800" y="790" width="60" height="60" as="geometry" />
        </mxCell>
        <mxCell id="yuVUtNRUPRUCI5B40eQd-14" value="kesempatan = 3;" style="rounded=0;whiteSpace=wrap;html=1;" vertex="1" parent="1">
          <mxGeometry x="970" y="620" width="120" height="60" as="geometry" />
        </mxCell>
        <mxCell id="l9U5h_uj9nOLsNxQxYaQ-1" value="selesai" style="strokeWidth=2;html=1;shape=mxgraph.flowchart.terminator;whiteSpace=wrap;" vertex="1" parent="1">
          <mxGeometry x="980" y="750" width="100" height="60" as="geometry" />
        </mxCell>
        <mxCell id="l9U5h_uj9nOLsNxQxYaQ-3" style="edgeStyle=orthogonalEdgeStyle;rounded=0;orthogonalLoop=1;jettySize=auto;html=1;exitX=0.5;exitY=1;exitDx=0;exitDy=0;entryX=0.5;entryY=0;entryDx=0;entryDy=0;entryPerimeter=0;" edge="1" parent="1" source="yuVUtNRUPRUCI5B40eQd-14" target="l9U5h_uj9nOLsNxQxYaQ-1">
          <mxGeometry relative="1" as="geometry" />
        </mxCell>
      </root>
    </mxGraphModel>
  </diagram>
  <diagram id="QPqH2crwe5FBlPlHOPdb" name="menu admin">
    <mxGraphModel dx="843" dy="468" grid="1" gridSize="10" guides="1" tooltips="1" connect="1" arrows="1" fold="1" page="1" pageScale="1" pageWidth="2000" pageHeight="2000" math="0" shadow="0">
      <root>
        <mxCell id="0" />
        <mxCell id="1" parent="0" />
        <mxCell id="1uF3l6yk4YEhTciIBFw0-1" value="mulai" style="strokeWidth=2;html=1;shape=mxgraph.flowchart.terminator;whiteSpace=wrap;" vertex="1" parent="1">
          <mxGeometry x="530" y="100" width="100" height="60" as="geometry" />
        </mxCell>
        <mxCell id="j_n6L-VyX9B6gS_xzooL-14" style="edgeStyle=orthogonalEdgeStyle;rounded=0;orthogonalLoop=1;jettySize=auto;html=1;exitX=0.5;exitY=1;exitDx=0;exitDy=0;" edge="1" parent="1" source="1uF3l6yk4YEhTciIBFw0-2" target="1uF3l6yk4YEhTciIBFw0-5">
          <mxGeometry relative="1" as="geometry" />
        </mxCell>
        <mxCell id="1uF3l6yk4YEhTciIBFw0-2" value="&amp;nbsp;Menu Admin &lt;br&gt;1. Tambah Robux&lt;br&gt;2. Tampilkan Robux&lt;br&gt;3. Hapus Robux&lt;br&gt;4. Logout&lt;br&gt;5. Keluar dari Program" style="shape=parallelogram;perimeter=parallelogramPerimeter;whiteSpace=wrap;html=1;fixedSize=1;" vertex="1" parent="1">
          <mxGeometry x="500" y="240" width="160" height="100" as="geometry" />
        </mxCell>
        <mxCell id="j_n6L-VyX9B6gS_xzooL-16" style="edgeStyle=orthogonalEdgeStyle;rounded=0;orthogonalLoop=1;jettySize=auto;html=1;exitX=1;exitY=0.5;exitDx=0;exitDy=0;entryX=0;entryY=0.5;entryDx=0;entryDy=0;" edge="1" parent="1" source="1uF3l6yk4YEhTciIBFw0-4" target="1uF3l6yk4YEhTciIBFw0-6">
          <mxGeometry relative="1" as="geometry" />
        </mxCell>
        <mxCell id="1uF3l6yk4YEhTciIBFw0-4" value="masukkan item&lt;br&gt;robux" style="shape=parallelogram;perimeter=parallelogramPerimeter;whiteSpace=wrap;html=1;fixedSize=1;" vertex="1" parent="1">
          <mxGeometry x="710" y="420" width="120" height="60" as="geometry" />
        </mxCell>
        <mxCell id="j_n6L-VyX9B6gS_xzooL-13" style="edgeStyle=orthogonalEdgeStyle;rounded=0;orthogonalLoop=1;jettySize=auto;html=1;exitX=0.5;exitY=1;exitDx=0;exitDy=0;entryX=0.5;entryY=0;entryDx=0;entryDy=0;" edge="1" parent="1" source="1uF3l6yk4YEhTciIBFw0-5" target="1uF3l6yk4YEhTciIBFw0-8">
          <mxGeometry relative="1" as="geometry" />
        </mxCell>
        <mxCell id="j_n6L-VyX9B6gS_xzooL-15" style="edgeStyle=orthogonalEdgeStyle;rounded=0;orthogonalLoop=1;jettySize=auto;html=1;exitX=1;exitY=0.5;exitDx=0;exitDy=0;" edge="1" parent="1" source="1uF3l6yk4YEhTciIBFw0-5" target="1uF3l6yk4YEhTciIBFw0-4">
          <mxGeometry relative="1" as="geometry" />
        </mxCell>
        <mxCell id="1uF3l6yk4YEhTciIBFw0-5" value="1" style="rhombus;whiteSpace=wrap;html=1;" vertex="1" parent="1">
          <mxGeometry x="540" y="410" width="80" height="80" as="geometry" />
        </mxCell>
        <mxCell id="j_n6L-VyX9B6gS_xzooL-17" style="edgeStyle=orthogonalEdgeStyle;rounded=0;orthogonalLoop=1;jettySize=auto;html=1;exitX=1;exitY=0.5;exitDx=0;exitDy=0;entryX=0;entryY=0.5;entryDx=0;entryDy=0;" edge="1" parent="1" source="1uF3l6yk4YEhTciIBFw0-6" target="1uF3l6yk4YEhTciIBFw0-7">
          <mxGeometry relative="1" as="geometry" />
        </mxCell>
        <mxCell id="1uF3l6yk4YEhTciIBFw0-6" value="masukkan harga" style="shape=parallelogram;perimeter=parallelogramPerimeter;whiteSpace=wrap;html=1;fixedSize=1;" vertex="1" parent="1">
          <mxGeometry x="900" y="420" width="120" height="60" as="geometry" />
        </mxCell>
        <mxCell id="1uF3l6yk4YEhTciIBFw0-12" style="edgeStyle=orthogonalEdgeStyle;rounded=0;orthogonalLoop=1;jettySize=auto;html=1;exitX=1;exitY=1;exitDx=0;exitDy=0;" edge="1" parent="1" source="1uF3l6yk4YEhTciIBFw0-7">
          <mxGeometry relative="1" as="geometry">
            <mxPoint x="1250" y="471.28571428571433" as="targetPoint" />
          </mxGeometry>
        </mxCell>
        <mxCell id="1uF3l6yk4YEhTciIBFw0-7" value="Item robux berhasil ditambahkan!" style="shape=parallelogram;perimeter=parallelogramPerimeter;whiteSpace=wrap;html=1;fixedSize=1;" vertex="1" parent="1">
          <mxGeometry x="1100" y="420" width="120" height="60" as="geometry" />
        </mxCell>
        <mxCell id="j_n6L-VyX9B6gS_xzooL-12" style="edgeStyle=orthogonalEdgeStyle;rounded=0;orthogonalLoop=1;jettySize=auto;html=1;exitX=0.5;exitY=1;exitDx=0;exitDy=0;entryX=0.5;entryY=0;entryDx=0;entryDy=0;" edge="1" parent="1" source="1uF3l6yk4YEhTciIBFw0-8" target="1uF3l6yk4YEhTciIBFw0-16">
          <mxGeometry relative="1" as="geometry" />
        </mxCell>
        <mxCell id="j_n6L-VyX9B6gS_xzooL-21" style="edgeStyle=orthogonalEdgeStyle;rounded=0;orthogonalLoop=1;jettySize=auto;html=1;exitX=1;exitY=0.5;exitDx=0;exitDy=0;entryX=0;entryY=0.5;entryDx=0;entryDy=0;" edge="1" parent="1" source="1uF3l6yk4YEhTciIBFw0-8" target="1uF3l6yk4YEhTciIBFw0-9">
          <mxGeometry relative="1" as="geometry" />
        </mxCell>
        <mxCell id="1uF3l6yk4YEhTciIBFw0-8" value="2" style="rhombus;whiteSpace=wrap;html=1;" vertex="1" parent="1">
          <mxGeometry x="540" y="560" width="80" height="80" as="geometry" />
        </mxCell>
        <mxCell id="1uF3l6yk4YEhTciIBFw0-15" style="edgeStyle=orthogonalEdgeStyle;rounded=0;orthogonalLoop=1;jettySize=auto;html=1;exitX=1;exitY=1;exitDx=0;exitDy=0;" edge="1" parent="1" source="1uF3l6yk4YEhTciIBFw0-9">
          <mxGeometry relative="1" as="geometry">
            <mxPoint x="850" y="621.5714285714286" as="targetPoint" />
          </mxGeometry>
        </mxCell>
        <mxCell id="j_n6L-VyX9B6gS_xzooL-22" style="edgeStyle=orthogonalEdgeStyle;rounded=0;orthogonalLoop=1;jettySize=auto;html=1;exitX=1;exitY=0.5;exitDx=0;exitDy=0;" edge="1" parent="1" source="1uF3l6yk4YEhTciIBFw0-9">
          <mxGeometry relative="1" as="geometry">
            <mxPoint x="1340" y="450" as="targetPoint" />
          </mxGeometry>
        </mxCell>
        <mxCell id="1uF3l6yk4YEhTciIBFw0-9" value="daftar robux" style="shape=parallelogram;perimeter=parallelogramPerimeter;whiteSpace=wrap;html=1;fixedSize=1;" vertex="1" parent="1">
          <mxGeometry x="700" y="570" width="120" height="60" as="geometry" />
        </mxCell>
        <mxCell id="j_n6L-VyX9B6gS_xzooL-11" style="edgeStyle=orthogonalEdgeStyle;rounded=0;orthogonalLoop=1;jettySize=auto;html=1;exitX=0.5;exitY=1;exitDx=0;exitDy=0;entryX=0.5;entryY=0;entryDx=0;entryDy=0;" edge="1" parent="1" source="1uF3l6yk4YEhTciIBFw0-16" target="1uF3l6yk4YEhTciIBFw0-20">
          <mxGeometry relative="1" as="geometry" />
        </mxCell>
        <mxCell id="j_n6L-VyX9B6gS_xzooL-23" style="edgeStyle=orthogonalEdgeStyle;rounded=0;orthogonalLoop=1;jettySize=auto;html=1;exitX=1;exitY=0.5;exitDx=0;exitDy=0;" edge="1" parent="1" source="1uF3l6yk4YEhTciIBFw0-16" target="1uF3l6yk4YEhTciIBFw0-17">
          <mxGeometry relative="1" as="geometry" />
        </mxCell>
        <mxCell id="1uF3l6yk4YEhTciIBFw0-16" value="3" style="rhombus;whiteSpace=wrap;html=1;" vertex="1" parent="1">
          <mxGeometry x="540" y="710" width="80" height="80" as="geometry" />
        </mxCell>
        <mxCell id="j_n6L-VyX9B6gS_xzooL-24" style="edgeStyle=orthogonalEdgeStyle;rounded=0;orthogonalLoop=1;jettySize=auto;html=1;exitX=1;exitY=0.5;exitDx=0;exitDy=0;" edge="1" parent="1" source="1uF3l6yk4YEhTciIBFw0-17" target="1uF3l6yk4YEhTciIBFw0-18">
          <mxGeometry relative="1" as="geometry" />
        </mxCell>
        <mxCell id="1uF3l6yk4YEhTciIBFw0-17" value="masukkan nomor&lt;br&gt;item yang ingin&lt;br&gt;dihapus" style="shape=parallelogram;perimeter=parallelogramPerimeter;whiteSpace=wrap;html=1;fixedSize=1;" vertex="1" parent="1">
          <mxGeometry x="690" y="720" width="120" height="60" as="geometry" />
        </mxCell>
        <mxCell id="1uF3l6yk4YEhTciIBFw0-19" style="edgeStyle=orthogonalEdgeStyle;rounded=0;orthogonalLoop=1;jettySize=auto;html=1;exitX=1;exitY=1;exitDx=0;exitDy=0;" edge="1" parent="1" source="1uF3l6yk4YEhTciIBFw0-18">
          <mxGeometry relative="1" as="geometry">
            <mxPoint x="1020" y="771.3103448275863" as="targetPoint" />
          </mxGeometry>
        </mxCell>
        <mxCell id="j_n6L-VyX9B6gS_xzooL-25" style="edgeStyle=orthogonalEdgeStyle;rounded=0;orthogonalLoop=1;jettySize=auto;html=1;exitX=1;exitY=0.5;exitDx=0;exitDy=0;" edge="1" parent="1" source="1uF3l6yk4YEhTciIBFw0-18">
          <mxGeometry relative="1" as="geometry">
            <mxPoint x="1340" y="600" as="targetPoint" />
          </mxGeometry>
        </mxCell>
        <mxCell id="1uF3l6yk4YEhTciIBFw0-18" value="Item robux berhasil dihapus!" style="shape=parallelogram;perimeter=parallelogramPerimeter;whiteSpace=wrap;html=1;fixedSize=1;" vertex="1" parent="1">
          <mxGeometry x="880" y="720" width="120" height="60" as="geometry" />
        </mxCell>
        <mxCell id="j_n6L-VyX9B6gS_xzooL-8" style="edgeStyle=orthogonalEdgeStyle;rounded=0;orthogonalLoop=1;jettySize=auto;html=1;exitX=1;exitY=0.5;exitDx=0;exitDy=0;" edge="1" parent="1" source="1uF3l6yk4YEhTciIBFw0-20" target="j_n6L-VyX9B6gS_xzooL-1">
          <mxGeometry relative="1" as="geometry" />
        </mxCell>
        <mxCell id="j_n6L-VyX9B6gS_xzooL-10" style="edgeStyle=orthogonalEdgeStyle;rounded=0;orthogonalLoop=1;jettySize=auto;html=1;exitX=0.5;exitY=1;exitDx=0;exitDy=0;entryX=0.5;entryY=0;entryDx=0;entryDy=0;" edge="1" parent="1" source="1uF3l6yk4YEhTciIBFw0-20" target="j_n6L-VyX9B6gS_xzooL-2">
          <mxGeometry relative="1" as="geometry" />
        </mxCell>
        <mxCell id="1uF3l6yk4YEhTciIBFw0-20" value="4" style="rhombus;whiteSpace=wrap;html=1;" vertex="1" parent="1">
          <mxGeometry x="540" y="850" width="80" height="80" as="geometry" />
        </mxCell>
        <mxCell id="1uF3l6yk4YEhTciIBFw0-21" value="selesai" style="strokeWidth=2;html=1;shape=mxgraph.flowchart.terminator;whiteSpace=wrap;" vertex="1" parent="1">
          <mxGeometry x="530" y="1240" width="100" height="60" as="geometry" />
        </mxCell>
        <mxCell id="j_n6L-VyX9B6gS_xzooL-1" value="&lt;div&gt;menu&lt;/div&gt;" style="verticalLabelPosition=bottom;verticalAlign=top;html=1;shape=offPageConnector;rounded=0;size=0.5;" vertex="1" parent="1">
          <mxGeometry x="700" y="860" width="60" height="60" as="geometry" />
        </mxCell>
        <mxCell id="j_n6L-VyX9B6gS_xzooL-5" style="edgeStyle=orthogonalEdgeStyle;rounded=0;orthogonalLoop=1;jettySize=auto;html=1;exitX=0.5;exitY=1;exitDx=0;exitDy=0;entryX=0.5;entryY=0;entryDx=0;entryDy=0;" edge="1" parent="1" source="j_n6L-VyX9B6gS_xzooL-2" target="j_n6L-VyX9B6gS_xzooL-4">
          <mxGeometry relative="1" as="geometry" />
        </mxCell>
        <mxCell id="j_n6L-VyX9B6gS_xzooL-2" value="5" style="rhombus;whiteSpace=wrap;html=1;" vertex="1" parent="1">
          <mxGeometry x="540" y="980" width="80" height="80" as="geometry" />
        </mxCell>
        <mxCell id="j_n6L-VyX9B6gS_xzooL-7" style="edgeStyle=orthogonalEdgeStyle;rounded=0;orthogonalLoop=1;jettySize=auto;html=1;exitX=1;exitY=1;exitDx=0;exitDy=0;" edge="1" parent="1" source="j_n6L-VyX9B6gS_xzooL-4">
          <mxGeometry relative="1" as="geometry">
            <mxPoint x="660" y="1171.2857142857142" as="targetPoint" />
          </mxGeometry>
        </mxCell>
        <mxCell id="j_n6L-VyX9B6gS_xzooL-4" value="&lt;div&gt;keluar dari program&lt;/div&gt;" style="shape=parallelogram;perimeter=parallelogramPerimeter;whiteSpace=wrap;html=1;fixedSize=1;" vertex="1" parent="1">
          <mxGeometry x="520" y="1120" width="120" height="60" as="geometry" />
        </mxCell>
        <mxCell id="j_n6L-VyX9B6gS_xzooL-6" style="edgeStyle=orthogonalEdgeStyle;rounded=0;orthogonalLoop=1;jettySize=auto;html=1;exitX=0.5;exitY=1;exitDx=0;exitDy=0;entryX=0.5;entryY=0;entryDx=0;entryDy=0;entryPerimeter=0;" edge="1" parent="1" source="j_n6L-VyX9B6gS_xzooL-4" target="1uF3l6yk4YEhTciIBFw0-21">
          <mxGeometry relative="1" as="geometry" />
        </mxCell>
        <mxCell id="j_n6L-VyX9B6gS_xzooL-20" style="edgeStyle=orthogonalEdgeStyle;rounded=0;orthogonalLoop=1;jettySize=auto;html=1;exitX=1;exitY=0.5;exitDx=0;exitDy=0;entryX=1.004;entryY=0.12;entryDx=0;entryDy=0;entryPerimeter=0;" edge="1" parent="1" source="1uF3l6yk4YEhTciIBFw0-7" target="1uF3l6yk4YEhTciIBFw0-2">
          <mxGeometry relative="1" as="geometry">
            <Array as="points">
              <mxPoint x="1340" y="450" />
              <mxPoint x="1340" y="252" />
            </Array>
          </mxGeometry>
        </mxCell>
      </root>
    </mxGraphModel>
  </diagram>
  <diagram id="R1mRz8ZduAkSX2vL41tb" name="menu user">
    <mxGraphModel dx="843" dy="468" grid="1" gridSize="10" guides="1" tooltips="1" connect="1" arrows="1" fold="1" page="1" pageScale="1" pageWidth="2000" pageHeight="2000" math="0" shadow="0">
      <root>
        <mxCell id="0" />
        <mxCell id="1" parent="0" />
        <mxCell id="LLT3hYu8le20LkYrBF-m-1" value="mulai" style="strokeWidth=2;html=1;shape=mxgraph.flowchart.terminator;whiteSpace=wrap;" vertex="1" parent="1">
          <mxGeometry x="590" y="150" width="100" height="60" as="geometry" />
        </mxCell>
        <mxCell id="LLT3hYu8le20LkYrBF-m-21" style="edgeStyle=orthogonalEdgeStyle;rounded=0;orthogonalLoop=1;jettySize=auto;html=1;exitX=0.5;exitY=1;exitDx=0;exitDy=0;entryX=0.5;entryY=0;entryDx=0;entryDy=0;" edge="1" parent="1" source="LLT3hYu8le20LkYrBF-m-3" target="LLT3hYu8le20LkYrBF-m-4">
          <mxGeometry relative="1" as="geometry" />
        </mxCell>
        <mxCell id="LLT3hYu8le20LkYrBF-m-3" value="&amp;nbsp;Menu User &lt;br&gt;1. Lihat Robux&lt;br&gt;2. Beli Robux&lt;br&gt;3. Logout dan Keluar Program" style="shape=parallelogram;perimeter=parallelogramPerimeter;whiteSpace=wrap;html=1;fixedSize=1;" vertex="1" parent="1">
          <mxGeometry x="570" y="320" width="140" height="70" as="geometry" />
        </mxCell>
        <mxCell id="LLT3hYu8le20LkYrBF-m-20" style="edgeStyle=orthogonalEdgeStyle;rounded=0;orthogonalLoop=1;jettySize=auto;html=1;exitX=0.5;exitY=1;exitDx=0;exitDy=0;entryX=0.5;entryY=0;entryDx=0;entryDy=0;" edge="1" parent="1" source="LLT3hYu8le20LkYrBF-m-4" target="LLT3hYu8le20LkYrBF-m-5">
          <mxGeometry relative="1" as="geometry" />
        </mxCell>
        <mxCell id="LLT3hYu8le20LkYrBF-m-22" style="edgeStyle=orthogonalEdgeStyle;rounded=0;orthogonalLoop=1;jettySize=auto;html=1;exitX=1;exitY=0.5;exitDx=0;exitDy=0;entryX=0;entryY=0.5;entryDx=0;entryDy=0;" edge="1" parent="1" source="LLT3hYu8le20LkYrBF-m-4" target="LLT3hYu8le20LkYrBF-m-7">
          <mxGeometry relative="1" as="geometry" />
        </mxCell>
        <mxCell id="LLT3hYu8le20LkYrBF-m-4" value="1" style="rhombus;whiteSpace=wrap;html=1;" vertex="1" parent="1">
          <mxGeometry x="600" y="470" width="80" height="80" as="geometry" />
        </mxCell>
        <mxCell id="LLT3hYu8le20LkYrBF-m-19" style="edgeStyle=orthogonalEdgeStyle;rounded=0;orthogonalLoop=1;jettySize=auto;html=1;exitX=0.5;exitY=1;exitDx=0;exitDy=0;entryX=0.5;entryY=0;entryDx=0;entryDy=0;" edge="1" parent="1" source="LLT3hYu8le20LkYrBF-m-5" target="LLT3hYu8le20LkYrBF-m-6">
          <mxGeometry relative="1" as="geometry" />
        </mxCell>
        <mxCell id="LLT3hYu8le20LkYrBF-m-23" style="edgeStyle=orthogonalEdgeStyle;rounded=0;orthogonalLoop=1;jettySize=auto;html=1;exitX=1;exitY=0.5;exitDx=0;exitDy=0;" edge="1" parent="1" source="LLT3hYu8le20LkYrBF-m-5" target="LLT3hYu8le20LkYrBF-m-8">
          <mxGeometry relative="1" as="geometry" />
        </mxCell>
        <mxCell id="LLT3hYu8le20LkYrBF-m-5" value="2" style="rhombus;whiteSpace=wrap;html=1;" vertex="1" parent="1">
          <mxGeometry x="600" y="620" width="80" height="80" as="geometry" />
        </mxCell>
        <mxCell id="LLT3hYu8le20LkYrBF-m-18" style="edgeStyle=orthogonalEdgeStyle;rounded=0;orthogonalLoop=1;jettySize=auto;html=1;exitX=0.5;exitY=1;exitDx=0;exitDy=0;" edge="1" parent="1" source="LLT3hYu8le20LkYrBF-m-6" target="LLT3hYu8le20LkYrBF-m-17">
          <mxGeometry relative="1" as="geometry" />
        </mxCell>
        <mxCell id="LLT3hYu8le20LkYrBF-m-6" value="3" style="rhombus;whiteSpace=wrap;html=1;" vertex="1" parent="1">
          <mxGeometry x="600" y="770" width="80" height="80" as="geometry" />
        </mxCell>
        <mxCell id="LLT3hYu8le20LkYrBF-m-9" style="edgeStyle=orthogonalEdgeStyle;rounded=0;orthogonalLoop=1;jettySize=auto;html=1;exitX=1;exitY=0.75;exitDx=0;exitDy=0;" edge="1" parent="1" source="LLT3hYu8le20LkYrBF-m-7">
          <mxGeometry relative="1" as="geometry">
            <mxPoint x="870" y="521.6551724137931" as="targetPoint" />
          </mxGeometry>
        </mxCell>
        <mxCell id="LLT3hYu8le20LkYrBF-m-7" value="tampilan menu&lt;br&gt;robux" style="shape=parallelogram;perimeter=parallelogramPerimeter;whiteSpace=wrap;html=1;fixedSize=1;" vertex="1" parent="1">
          <mxGeometry x="730" y="480" width="120" height="60" as="geometry" />
        </mxCell>
        <mxCell id="LLT3hYu8le20LkYrBF-m-13" style="edgeStyle=orthogonalEdgeStyle;rounded=0;orthogonalLoop=1;jettySize=auto;html=1;exitX=1;exitY=1;exitDx=0;exitDy=0;" edge="1" parent="1" source="LLT3hYu8le20LkYrBF-m-8">
          <mxGeometry relative="1" as="geometry">
            <mxPoint x="870" y="681.3333333333334" as="targetPoint" />
          </mxGeometry>
        </mxCell>
        <mxCell id="LLT3hYu8le20LkYrBF-m-24" style="edgeStyle=orthogonalEdgeStyle;rounded=0;orthogonalLoop=1;jettySize=auto;html=1;exitX=1;exitY=0.5;exitDx=0;exitDy=0;entryX=0;entryY=0.5;entryDx=0;entryDy=0;" edge="1" parent="1" source="LLT3hYu8le20LkYrBF-m-8" target="LLT3hYu8le20LkYrBF-m-14">
          <mxGeometry relative="1" as="geometry" />
        </mxCell>
        <mxCell id="LLT3hYu8le20LkYrBF-m-8" value="tampilan menu&lt;br&gt;robux" style="shape=parallelogram;perimeter=parallelogramPerimeter;whiteSpace=wrap;html=1;fixedSize=1;" vertex="1" parent="1">
          <mxGeometry x="720" y="630" width="120" height="60" as="geometry" />
        </mxCell>
        <mxCell id="LLT3hYu8le20LkYrBF-m-26" style="edgeStyle=orthogonalEdgeStyle;rounded=0;orthogonalLoop=1;jettySize=auto;html=1;exitX=1;exitY=0.5;exitDx=0;exitDy=0;" edge="1" parent="1" source="LLT3hYu8le20LkYrBF-m-14">
          <mxGeometry relative="1" as="geometry">
            <mxPoint x="1120" y="510" as="targetPoint" />
          </mxGeometry>
        </mxCell>
        <mxCell id="LLT3hYu8le20LkYrBF-m-14" value="Masukkan nomor item yang ingin dibeli" style="shape=parallelogram;perimeter=parallelogramPerimeter;whiteSpace=wrap;html=1;fixedSize=1;" vertex="1" parent="1">
          <mxGeometry x="910" y="630" width="120" height="60" as="geometry" />
        </mxCell>
        <mxCell id="LLT3hYu8le20LkYrBF-m-17" value="selesai" style="strokeWidth=2;html=1;shape=mxgraph.flowchart.terminator;whiteSpace=wrap;" vertex="1" parent="1">
          <mxGeometry x="590" y="920" width="100" height="60" as="geometry" />
        </mxCell>
        <mxCell id="LLT3hYu8le20LkYrBF-m-25" style="edgeStyle=orthogonalEdgeStyle;rounded=0;orthogonalLoop=1;jettySize=auto;html=1;exitX=1;exitY=0.5;exitDx=0;exitDy=0;entryX=1.003;entryY=0.199;entryDx=0;entryDy=0;entryPerimeter=0;" edge="1" parent="1" source="LLT3hYu8le20LkYrBF-m-7" target="LLT3hYu8le20LkYrBF-m-3">
          <mxGeometry relative="1" as="geometry">
            <Array as="points">
              <mxPoint x="1120" y="510" />
              <mxPoint x="1120" y="334" />
            </Array>
          </mxGeometry>
        </mxCell>
      </root>
    </mxGraphModel>
  </diagram>
</mxfile>
